# Blender v2.93.1 OBJ File: 'Chapter02_Map.blend'
# www.blender.org
mtllib Chapter02_Map.mtl
o Cube
v 10.000000 10.000000 -10.000000
v 10.000000 0.000000 -10.000000
v 10.000000 10.000000 10.000000
v 10.000000 0.000000 10.000000
v -10.000000 10.000000 -10.000000
v -10.000000 0.000000 -10.000000
v -10.000000 10.000000 10.000000
v -10.000000 0.000000 10.000000
v 10.000000 0.000000 -2.065145
v 10.000000 5.855016 -2.112819
v 10.000000 0.000000 2.055625
v 10.000000 5.879601 1.871264
v 18.740561 0.000000 -2.065145
v 18.740561 5.855016 -2.112819
v 18.740561 0.000000 2.055625
v 18.740561 5.879601 1.871264
v 0.000000 10.000000 10.000000
v 0.000000 0.000000 10.000000
v 5.000000 0.000000 10.000000
v 5.000000 10.000000 10.000000
v 0.000000 5.855798 10.000000
v 5.000000 5.901013 10.000000
v 0.000000 0.000000 24.366760
v 5.000000 0.000000 24.366760
v 0.000000 5.855798 24.366760
v 5.000000 5.901013 24.366760
v 0.000000 0.000000 19.550034
v 0.000000 5.855798 19.631943
v -8.985224 0.000000 24.366760
v -8.985224 5.855798 24.366760
v -8.985224 0.000000 19.550034
v -8.985224 5.855798 19.631943
v 10.000000 10.000000 -21.453430
v 10.000000 0.000000 -21.453430
v -10.000000 10.000000 -21.453430
v -10.000000 0.000000 -21.453430
v 10.000000 10.000000 1.501292
v 10.000000 10.000000 -2.303336
vt 0.625000 0.500000
vt 0.875000 0.500000
vt 0.875000 0.750000
vt 0.750000 0.750000
vt 0.687500 0.750000
vt 0.625000 0.750000
vt 0.625000 0.643766
vt 0.625000 0.596208
vt 0.375000 0.875000
vt 0.521395 0.875000
vt 0.625000 0.875000
vt 0.625000 1.000000
vt 0.375000 1.000000
vt 0.375000 0.000000
vt 0.625000 0.000000
vt 0.625000 0.250000
vt 0.375000 0.250000
vt 0.125000 0.500000
vt 0.375000 0.500000
vt 0.375000 0.599186
vt 0.375000 0.650695
vt 0.375000 0.750000
vt 0.312500 0.750000
vt 0.250000 0.750000
vt 0.125000 0.750000
vt 0.125000 0.500000
vt 0.375000 0.500000
vt 0.521375 0.598590
vt 0.521375 0.598590
vt 0.375000 0.599186
vt 0.521990 0.648391
vt 0.521990 0.648391
vt 0.375000 0.650695
vt 0.522525 0.812500
vt 0.521395 0.875000
vt 0.521395 0.875000
vt 0.522525 0.812500
vt 0.625000 0.812500
vt 0.375000 0.812500
vt 0.375000 0.812500
vt 0.375000 0.875000
vt 0.375000 0.875000
vt 0.312500 0.750000
vt 0.250000 0.750000
vt 0.250000 0.750000
vt 0.375000 0.875000
vt 0.521395 0.875000
vt 0.375000 0.875000
vt 0.521395 0.875000
vt 0.250000 0.750000
vt 0.250000 0.750000
vt 0.375000 0.250000
vt 0.625000 0.250000
vt 0.625000 0.500000
vt 0.875000 0.500000
vn 0.0000 1.0000 0.0000
vn 0.0000 0.0000 1.0000
vn -1.0000 0.0000 0.0000
vn 0.0000 -1.0000 0.0000
vn 0.0000 -0.0081 -1.0000
vn 1.0000 0.0000 0.0000
vn 0.0000 1.0000 -0.0062
vn 0.0000 0.0313 0.9995
vn -0.0090 1.0000 0.0000
vn 0.0000 0.0140 -0.9999
vn 0.0000 0.0000 -1.0000
usemtl Material
s off
f 1/1/1 5/2/1 7/3/1 17/4/1 20/5/1 3/6/1 37/7/1 38/8/1
f 18/9/2 21/10/2 17/11/2 7/12/2 8/13/2
f 8/14/3 7/15/3 5/16/3 6/17/3
f 6/18/4 2/19/4 9/20/4 11/21/4 4/22/4 19/23/4 18/24/4 8/25/4
f 2/19/4 6/18/4 36/26/4 34/27/4
f 9/20/5 10/28/5 14/29/5 13/30/5
f 12/31/6 10/28/6 38/8/6 37/7/6
f 13/30/6 14/29/6 16/32/6 15/33/6
f 11/21/4 9/20/4 13/30/4 15/33/4
f 10/28/7 12/31/7 16/32/7 14/29/7
f 12/31/8 11/21/8 15/33/8 16/32/8
f 22/34/9 21/10/9 28/35/9 25/36/9 26/37/9
f 4/22/2 3/6/2 20/38/2 22/34/2 19/39/2
f 24/40/2 26/37/2 25/36/2 23/41/2
f 21/10/2 22/34/2 20/38/2 17/11/2
f 21/10/3 18/9/3 27/42/3 28/35/3
f 19/39/6 22/34/6 26/37/6 24/40/6
f 18/24/4 19/23/4 24/43/4 23/44/4 27/45/4
f 28/35/10 27/42/10 31/46/10 32/47/10
f 32/47/3 31/46/3 29/48/3 30/49/3
f 27/45/4 23/44/4 29/50/4 31/51/4
f 25/36/1 28/35/1 32/47/1 30/49/1
f 23/41/2 25/36/2 30/49/2 29/48/2
f 36/52/11 35/53/11 33/54/11 34/27/11
f 5/2/1 1/1/1 33/54/1 35/55/1
f 6/17/3 5/16/3 35/53/3 36/52/3
f 37/7/6 3/6/6 4/22/6 11/21/6 12/31/6
f 38/8/6 10/28/6 9/20/6 2/19/6 34/27/6 33/54/6 1/1/6
