# Blender v2.93.1 OBJ File: 'floor.blend'
# www.blender.org
mtllib floor.mtl
o Plane
v -10.000000 0.000000 10.000000
v 10.000000 0.000000 10.000000
v -10.000000 0.000000 -10.000000
v 10.000000 0.000000 -10.000000
v 2.670845 0.000000 10.000000
v 5.376215 0.000000 10.000000
v 10.000000 0.000000 4.009310
v 2.670845 0.000000 17.018204
v 5.376215 0.000000 17.018204
v 2.670845 0.000000 15.298317
v -3.610839 0.000000 17.018204
v -3.610839 0.000000 15.298317
v 10.000000 0.000000 0.013172
v 16.217173 0.000000 4.009310
v 16.217173 0.000000 0.013172
vt 0.000000 0.000000
vt 0.633542 0.000000
vt 0.768811 0.000000
vt 1.000000 0.000000
vt 1.000000 0.299534
vt 1.000000 0.499341
vt 1.000000 1.000000
vt 0.000000 1.000000
vt 1.000000 0.299534
vt 1.000000 0.499341
vt 0.633542 0.000000
vt 0.633542 0.000000
vt 0.633542 0.000000
vt 0.633542 0.000000
vt 0.768811 0.000000
vn 0.0000 1.0000 0.0000
usemtl None
s off
f 1/1/1 5/2/1 6/3/1 2/4/1 7/5/1 13/6/1 4/7/1 3/8/1
f 13/6/1 7/5/1 14/9/1 15/10/1
f 8/11/1 10/12/1 12/13/1 11/14/1
f 10/12/1 8/11/1 9/15/1 6/3/1 5/2/1
