# Blender v2.93.1 OBJ File: 'door_frame.blend'
# www.blender.org
mtllib door_frame.mtl
o fram_Cube.002
v -1.275639 0.003332 0.078844
v -1.275639 5.916043 0.078845
v -1.290184 5.930588 0.078845
v -1.296209 0.003332 0.078844
v 1.286841 5.916043 -0.392982
v 1.246104 5.875305 -0.392982
v -1.234901 5.875305 -0.392982
v -1.275639 5.916043 -0.392982
v -1.218027 0.003332 -0.392983
v -1.275639 0.003332 -0.392983
v 1.286841 0.005227 -0.392983
v 1.229229 0.005227 -0.392983
v 1.286841 5.916043 0.078845
v 1.286841 0.005227 0.078844
v 1.307411 0.005227 0.078844
v 1.301386 5.930588 0.078845
v 1.430004 6.059912 -0.450254
v 1.573166 6.203781 -0.408707
v 1.573166 0.005353 -0.408708
v 1.430004 0.005290 -0.450255
v -1.418801 0.003332 -0.450255
v -1.561964 0.003332 -0.408708
v -1.561964 6.203781 -0.408707
v -1.418801 6.059912 -0.450254
v -1.434972 6.074942 0.136117
v -1.579760 6.219296 0.094570
v -1.587131 0.003332 0.094569
v -1.441670 0.003332 0.136116
v 1.286841 5.916043 -0.081232
v 1.301386 5.930588 -0.081232
v -1.290184 5.930588 -0.081232
v -1.275639 5.916043 -0.081232
v -1.234901 5.875305 -0.081232
v 1.246104 5.875305 -0.081232
v -1.218027 0.003332 -0.081233
v 1.229229 0.005227 -0.081233
v -1.275639 0.003332 -0.081233
v 1.286841 0.005227 -0.081233
v 1.307411 0.005227 -0.081233
v -1.296209 0.003332 -0.081233
v 1.446174 6.074942 0.136117
v 1.452872 0.005290 0.136116
v 1.598333 0.005353 0.094569
v 1.590962 6.219296 0.094570
vt 0.294600 0.030200
vt 0.294600 0.927900
vt 0.292400 0.930100
vt 0.291500 0.030200
vt 0.472700 0.186100
vt 0.466100 0.192800
vt 0.466100 0.596600
vt 0.472700 0.603300
vt 0.294600 0.927900
vt 0.300800 0.921700
vt 0.303400 0.030200
vt 0.294600 0.030200
vt 0.683700 0.030500
vt 0.674900 0.030500
vt 0.677500 0.921700
vt 0.683700 0.927900
vt 0.683700 0.927900
vt 0.683700 0.030500
vt 0.686800 0.030500
vt 0.685900 0.930100
vt 0.472700 0.603300
vt 0.472700 0.186100
vt 0.475100 0.183800
vt 0.475100 0.605600
vt 0.705400 0.949800
vt 0.727100 0.971600
vt 0.727100 0.030500
vt 0.705400 0.030500
vt 0.272900 0.030200
vt 0.251100 0.030200
vt 0.251100 0.971600
vt 0.272900 0.949800
vt 0.496100 0.626600
vt 0.519600 0.649900
vt 0.519600 0.139500
vt 0.496100 0.162800
vt 0.270400 0.952000
vt 0.248400 0.974000
vt 0.247300 0.030200
vt 0.269400 0.030200
vt 0.620400 0.763700
vt 0.622000 0.762100
vt 0.341300 0.762100
vt 0.342900 0.763700
vt 0.472700 0.603300
vt 0.466100 0.596600
vt 0.466100 0.192800
vt 0.472700 0.186100
vt 0.902700 0.062700
vt 0.857000 0.062900
vt 0.860000 0.924900
vt 0.905800 0.924700
vt 0.104600 0.942300
vt 0.150400 0.942500
vt 0.154000 0.080700
vt 0.108300 0.080500
vt 0.347300 0.768100
vt 0.347300 0.801900
vt 0.616000 0.801900
vt 0.616000 0.768100
vt 0.294600 0.030200
vt 0.303400 0.030200
vt 0.300800 0.921700
vt 0.294600 0.927900
vt 0.683700 0.927900
vt 0.677500 0.921700
vt 0.674900 0.030500
vt 0.683700 0.030500
vt 0.096800 0.080500
vt 0.073300 0.080500
vt 0.073000 0.950400
vt 0.096500 0.950400
vt 0.622000 0.744800
vt 0.341300 0.744800
vt 0.937400 0.932900
vt 0.937700 0.062800
vt 0.914200 0.062700
vt 0.913900 0.932900
vt 0.911800 0.930700
vt 0.911200 0.062700
vt 0.099800 0.080500
vt 0.098700 0.948200
vt 0.707800 0.952000
vt 0.708900 0.030500
vt 0.730900 0.030500
vt 0.729800 0.974000
vt 0.498600 0.629200
vt 0.498600 0.160200
vt 0.522100 0.136600
vt 0.522100 0.652800
vn 0.0000 -0.0000 1.0000
vn 0.0000 0.0000 -1.0000
vn 0.2787 0.0000 -0.9604
vn -0.2787 0.0000 -0.9604
vn 0.0000 0.2774 -0.9607
vn -0.2751 0.0003 0.9614
vn 0.3669 -0.0004 0.9303
vn 0.0000 -0.3699 -0.9291
vn 0.3714 0.0000 -0.9285
vn -0.3714 0.0000 -0.9285
vn 1.0000 0.0029 0.0000
vn -1.0000 0.0029 0.0000
vn 0.0000 -1.0000 0.0000
vn -1.0000 -0.0010 0.0000
vn 1.0000 -0.0010 0.0000
vn 0.1401 0.1413 0.9800
vn 0.2751 0.0003 0.9614
vn 0.1406 0.1408 0.9800
vn 0.0000 0.2766 0.9610
vn 0.0000 -0.3688 0.9295
vn -0.3669 -0.0004 0.9303
usemtl Material.001
s off
f 1/1/1 2/2/1 3/3/1 4/4/1
f 5/5/2 6/6/2 7/7/2 8/8/2
f 8/9/2 7/10/2 9/11/2 10/12/2
f 11/13/2 12/14/2 6/15/2 5/16/2
f 13/17/1 14/18/1 15/19/1 16/20/1
f 2/21/1 13/22/1 16/23/1 3/24/1
f 17/25/3 18/26/3 19/27/3 20/28/3
f 21/29/4 22/30/4 23/31/4 24/32/4
f 24/33/5 23/34/5 18/35/5 17/36/5
f 25/37/6 26/38/6 27/39/6 28/40/6
f 3/3/7 25/37/7 28/40/7 4/4/7
f 8/8/8 24/33/8 17/36/8 5/5/8
f 10/12/9 21/29/9 24/32/9 8/9/9
f 5/16/10 17/25/10 20/28/10 11/13/10
s 1
f 29/41/1 30/42/1 31/43/1 32/44/1
f 32/45/1 33/46/1 34/47/1 29/48/1
f 35/49/11 9/50/11 7/51/11 33/52/11
f 34/53/12 6/54/12 12/55/12 36/56/12
f 33/57/13 7/58/13 6/59/13 34/60/13
f 37/61/1 35/62/1 33/63/1 32/64/1
f 29/65/1 34/66/1 36/67/1 38/68/1
f 39/69/14 15/70/14 16/71/14 30/72/14
f 16/73/13 3/74/13 31/43/13 30/42/13
f 3/75/15 4/76/15 40/77/15 31/78/15
f 32/79/1 31/78/1 40/77/1 37/80/1
f 38/81/1 39/69/1 30/72/1 29/82/1
f 41/83/16 42/84/17 43/85/17 44/86/18
f 25/87/19 41/88/16 44/89/18 26/90/19
f 3/24/20 16/23/20 41/88/20 25/87/20
f 16/20/21 15/19/21 42/84/21 41/83/21
